<mxfile host="app.diagrams.net" modified="2023-08-05T17:17:15.892Z" agent="Mozilla/5.0 (X11; Linux x86_64) AppleWebKit/537.36 (KHTML, like Gecko) Chrome/111.0.0.0 Safari/537.36" etag="JDZKXCFvnWVNAl4580GQ" version="21.6.6" type="device">
  <diagram id="3gI-FnurcQzA7kSeq-gB" name="Page-1">
    <mxGraphModel dx="2189" dy="746" grid="1" gridSize="10" guides="1" tooltips="1" connect="1" arrows="1" fold="1" page="1" pageScale="1" pageWidth="827" pageHeight="1169" math="0" shadow="0">
      <root>
        <mxCell id="0" />
        <mxCell id="1" parent="0" />
        <mxCell id="AxMKWEj2gHSbrjfSU4OW-2" style="edgeStyle=orthogonalEdgeStyle;rounded=0;orthogonalLoop=1;jettySize=auto;html=1;entryX=0;entryY=0.5;entryDx=0;entryDy=0;strokeWidth=2;" parent="1" source="DRst3tGph7S1b_jGH1uu-1" target="NQ1BeKI3s2YJcqtyJM0e-19" edge="1">
          <mxGeometry relative="1" as="geometry" />
        </mxCell>
        <mxCell id="NQ1BeKI3s2YJcqtyJM0e-15" value="" style="points=[[0.35,0,0],[0.98,0.51,0],[1,0.71,0],[0.67,1,0],[0,0.795,0],[0,0.65,0]];verticalLabelPosition=bottom;sketch=0;html=1;verticalAlign=top;aspect=fixed;align=center;pointerEvents=1;shape=mxgraph.cisco19.user;fillColor=#000000;strokeColor=none;strokeWidth=2;" parent="1" vertex="1">
          <mxGeometry x="-220" y="320" width="120" height="120" as="geometry" />
        </mxCell>
        <mxCell id="NQ1BeKI3s2YJcqtyJM0e-17" value="User inputs the URL karthikganesan.dev&amp;nbsp;" style="text;html=1;strokeColor=none;fillColor=none;align=center;verticalAlign=middle;whiteSpace=wrap;rounded=0;fontSize=14;strokeWidth=2;" parent="1" vertex="1">
          <mxGeometry x="-220" y="470" width="120" height="30" as="geometry" />
        </mxCell>
        <mxCell id="AxMKWEj2gHSbrjfSU4OW-3" style="edgeStyle=orthogonalEdgeStyle;rounded=0;orthogonalLoop=1;jettySize=auto;html=1;entryX=-0.017;entryY=0.5;entryDx=0;entryDy=0;entryPerimeter=0;strokeWidth=2;" parent="1" source="NQ1BeKI3s2YJcqtyJM0e-19" edge="1">
          <mxGeometry relative="1" as="geometry">
            <mxPoint x="442.96000000000004" y="380" as="targetPoint" />
          </mxGeometry>
        </mxCell>
        <mxCell id="NQ1BeKI3s2YJcqtyJM0e-19" value="" style="shape=image;verticalLabelPosition=bottom;labelBackgroundColor=default;verticalAlign=top;aspect=fixed;imageAspect=0;image=https://images.g2crowd.com/uploads/product/image/large_detail/large_detail_3d6e8d6392f304e1696afaaab3208ab1/tailscale.png;strokeWidth=2;" parent="1" vertex="1">
          <mxGeometry x="241" y="320" width="120" height="120" as="geometry" />
        </mxCell>
        <mxCell id="NQ1BeKI3s2YJcqtyJM0e-22" value="&lt;span style=&quot;background-color: rgb(255, 255, 255); font-size: 14px;&quot;&gt;Tailscale funnel server&lt;br&gt;&lt;br&gt;&amp;nbsp;Accepts incoming requests&amp;nbsp;&lt;span style=&quot;border: 0px solid rgb(217, 217, 227); box-sizing: border-box; --tw-border-spacing-x:0; --tw-border-spacing-y:0; --tw-translate-x:0; --tw-translate-y:0; --tw-rotate:0; --tw-skew-x:0; --tw-skew-y:0; --tw-scale-x:1; --tw-scale-y:1; --tw-pan-x: ; --tw-pan-y: ; --tw-pinch-zoom: ; --tw-scroll-snap-strictness:proximity; --tw-gradient-from-position: ; --tw-gradient-via-position: ; --tw-gradient-to-position: ; --tw-ordinal: ; --tw-slashed-zero: ; --tw-numeric-figure: ; --tw-numeric-spacing: ; --tw-numeric-fraction: ; --tw-ring-inset: ; --tw-ring-offset-width:0px; --tw-ring-offset-color:#fff; --tw-ring-color:rgba(69,89,164,0.5); --tw-ring-offset-shadow:0 0 transparent; --tw-ring-shadow:0 0 transparent; --tw-shadow:0 0 transparent; --tw-shadow-colored:0 0 transparent; --tw-blur: ; --tw-brightness: ; --tw-contrast: ; --tw-grayscale: ; --tw-hue-rotate: ; --tw-invert: ; --tw-saturate: ; --tw-sepia: ; --tw-drop-shadow: ; --tw-backdrop-blur: ; --tw-backdrop-brightness: ; --tw-backdrop-contrast: ; --tw-backdrop-grayscale: ; --tw-backdrop-hue-rotate: ; --tw-backdrop-invert: ; --tw-backdrop-opacity: ; --tw-backdrop-saturate: ; --tw-backdrop-sepia: ; text-align: left;&quot; class=&quot;hljs-keyword&quot;&gt;and&lt;/span&gt;&lt;span style=&quot;text-align: left;&quot;&gt; sends TCP proxy over&amp;nbsp;Tailscale to use&lt;/span&gt;&lt;span style=&quot;border: 0px solid rgb(217, 217, 227); box-sizing: border-box; --tw-border-spacing-x:0; --tw-border-spacing-y:0; --tw-translate-x:0; --tw-translate-y:0; --tw-rotate:0; --tw-skew-x:0; --tw-skew-y:0; --tw-scale-x:1; --tw-scale-y:1; --tw-pan-x: ; --tw-pan-y: ; --tw-pinch-zoom: ; --tw-scroll-snap-strictness:proximity; --tw-gradient-from-position: ; --tw-gradient-via-position: ; --tw-gradient-to-position: ; --tw-ordinal: ; --tw-slashed-zero: ; --tw-numeric-figure: ; --tw-numeric-spacing: ; --tw-numeric-fraction: ; --tw-ring-inset: ; --tw-ring-offset-width:0px; --tw-ring-offset-color:#fff; --tw-ring-color:rgba(69,89,164,0.5); --tw-ring-offset-shadow:0 0 transparent; --tw-ring-shadow:0 0 transparent; --tw-shadow:0 0 transparent; --tw-shadow-colored:0 0 transparent; --tw-blur: ; --tw-brightness: ; --tw-contrast: ; --tw-grayscale: ; --tw-hue-rotate: ; --tw-invert: ; --tw-saturate: ; --tw-sepia: ; --tw-drop-shadow: ; --tw-backdrop-blur: ; --tw-backdrop-brightness: ; --tw-backdrop-contrast: ; --tw-backdrop-grayscale: ; --tw-backdrop-hue-rotate: ; --tw-backdrop-invert: ; --tw-backdrop-opacity: ; --tw-backdrop-saturate: ; --tw-backdrop-sepia: ; text-align: left;&quot; class=&quot;hljs-string&quot;&gt;r&#39;s Tailscale&amp;nbsp;node     &lt;/span&gt;&lt;/span&gt;" style="text;html=1;strokeColor=none;fillColor=none;align=center;verticalAlign=middle;whiteSpace=wrap;rounded=0;strokeWidth=2;" parent="1" vertex="1">
          <mxGeometry x="226" y="480" width="150" height="30" as="geometry" />
        </mxCell>
        <mxCell id="NQ1BeKI3s2YJcqtyJM0e-26" value="&lt;font style=&quot;font-size: 14px;&quot;&gt;Personal Computer acting as a server running Tailscale&lt;br&gt;&lt;br&gt;TLS termination &lt;span style=&quot;border: 0px solid rgb(217, 217, 227); box-sizing: border-box; --tw-border-spacing-x:0; --tw-border-spacing-y:0; --tw-translate-x:0; --tw-translate-y:0; --tw-rotate:0; --tw-skew-x:0; --tw-skew-y:0; --tw-scale-x:1; --tw-scale-y:1; --tw-pan-x: ; --tw-pan-y: ; --tw-pinch-zoom: ; --tw-scroll-snap-strictness:proximity; --tw-gradient-from-position: ; --tw-gradient-via-position: ; --tw-gradient-to-position: ; --tw-ordinal: ; --tw-slashed-zero: ; --tw-numeric-figure: ; --tw-numeric-spacing: ; --tw-numeric-fraction: ; --tw-ring-inset: ; --tw-ring-offset-width:0px; --tw-ring-offset-color:#fff; --tw-ring-color:rgba(69,89,164,0.5); --tw-ring-offset-shadow:0 0 transparent; --tw-ring-shadow:0 0 transparent; --tw-shadow:0 0 transparent; --tw-shadow-colored:0 0 transparent; --tw-blur: ; --tw-brightness: ; --tw-contrast: ; --tw-grayscale: ; --tw-hue-rotate: ; --tw-invert: ; --tw-saturate: ; --tw-sepia: ; --tw-drop-shadow: ; --tw-backdrop-blur: ; --tw-backdrop-brightness: ; --tw-backdrop-contrast: ; --tw-backdrop-grayscale: ; --tw-backdrop-hue-rotate: ; --tw-backdrop-invert: ; --tw-backdrop-opacity: ; --tw-backdrop-saturate: ; --tw-backdrop-sepia: ; text-align: left;&quot; class=&quot;hljs-keyword&quot;&gt;and&lt;/span&gt;&lt;span style=&quot;text-align: left;&quot;&gt;&amp;nbsp;Serving the&amp;nbsp;forwarding to the ReactJS application&lt;/span&gt;&lt;br&gt;&lt;/font&gt;" style="text;html=1;strokeColor=none;fillColor=none;align=center;verticalAlign=middle;whiteSpace=wrap;rounded=0;strokeWidth=2;" parent="1" vertex="1">
          <mxGeometry x="440" y="510" width="130" height="30" as="geometry" />
        </mxCell>
        <mxCell id="NQ1BeKI3s2YJcqtyJM0e-27" value="" style="shape=image;html=1;verticalAlign=top;verticalLabelPosition=bottom;labelBackgroundColor=#ffffff;imageAspect=0;aspect=fixed;image=https://cdn1.iconfinder.com/data/icons/ionicons-fill-vol-2/512/logo-react-128.png;strokeWidth=2;" parent="1" vertex="1">
          <mxGeometry x="640" y="320" width="120" height="120" as="geometry" />
        </mxCell>
        <mxCell id="NQ1BeKI3s2YJcqtyJM0e-30" value="&lt;font style=&quot;font-size: 14px;&quot;&gt;ReactJS application hosted on the personal server&lt;/font&gt;" style="text;html=1;strokeColor=none;fillColor=none;align=center;verticalAlign=middle;whiteSpace=wrap;rounded=0;strokeWidth=2;" parent="1" vertex="1">
          <mxGeometry x="640" y="460" width="130" height="30" as="geometry" />
        </mxCell>
        <mxCell id="AxMKWEj2gHSbrjfSU4OW-7" style="edgeStyle=orthogonalEdgeStyle;rounded=0;orthogonalLoop=1;jettySize=auto;html=1;entryX=0;entryY=0.5;entryDx=0;entryDy=0;strokeWidth=2;" parent="1" source="AxMKWEj2gHSbrjfSU4OW-6" target="NQ1BeKI3s2YJcqtyJM0e-27" edge="1">
          <mxGeometry relative="1" as="geometry" />
        </mxCell>
        <mxCell id="AxMKWEj2gHSbrjfSU4OW-6" value="" style="fontColor=#0066CC;verticalAlign=top;verticalLabelPosition=bottom;labelPosition=center;align=center;html=1;outlineConnect=0;fillColor=#CCCCCC;strokeColor=#000000;gradientColor=none;gradientDirection=north;strokeWidth=2;shape=mxgraph.networks.pc;" parent="1" vertex="1">
          <mxGeometry x="445" y="330" width="120" height="100" as="geometry" />
        </mxCell>
        <mxCell id="NQ1BeKI3s2YJcqtyJM0e-25" value="" style="shape=image;verticalLabelPosition=bottom;labelBackgroundColor=default;verticalAlign=top;aspect=fixed;imageAspect=0;image=https://images.g2crowd.com/uploads/product/image/large_detail/large_detail_3d6e8d6392f304e1696afaaab3208ab1/tailscale.png;rotation=0;strokeWidth=2;" parent="1" vertex="1">
          <mxGeometry x="530" y="340" width="30" height="30" as="geometry" />
        </mxCell>
        <mxCell id="DRst3tGph7S1b_jGH1uu-2" value="" style="edgeStyle=orthogonalEdgeStyle;rounded=0;orthogonalLoop=1;jettySize=auto;html=1;entryX=0;entryY=0.5;entryDx=0;entryDy=0;strokeWidth=2;" edge="1" parent="1" source="NQ1BeKI3s2YJcqtyJM0e-15" target="DRst3tGph7S1b_jGH1uu-1">
          <mxGeometry relative="1" as="geometry">
            <mxPoint x="-120" y="380" as="sourcePoint" />
            <mxPoint x="241" y="380" as="targetPoint" />
          </mxGeometry>
        </mxCell>
        <mxCell id="DRst3tGph7S1b_jGH1uu-1" value="" style="shape=image;verticalLabelPosition=bottom;labelBackgroundColor=default;verticalAlign=top;aspect=fixed;imageAspect=0;image=https://i.pinimg.com/originals/dc/60/2d/dc602d54b32e71832d773ac52e1c4b2a.png;" vertex="1" parent="1">
          <mxGeometry y="325" width="117.99" height="110" as="geometry" />
        </mxCell>
        <mxCell id="DRst3tGph7S1b_jGH1uu-3" value="Google Domains &lt;br&gt;&lt;br&gt;Forwards the request to website hosted using TailScale provided DNS (e.g., tailnet-name.ts.net)" style="text;html=1;strokeColor=none;fillColor=none;align=center;verticalAlign=middle;whiteSpace=wrap;rounded=0;fontSize=14;" vertex="1" parent="1">
          <mxGeometry x="-16.009999999999998" y="490" width="150" height="30" as="geometry" />
        </mxCell>
      </root>
    </mxGraphModel>
  </diagram>
</mxfile>
